<?xml version="1.0" encoding="UTF-8" standalone="no"?>
<!DOCTYPE svg PUBLIC "-//W3C//DTD SVG 1.1//EN"
 "http://www.w3.org/Graphics/SVG/1.1/DTD/svg11.dtd">
<!-- Generated by graphviz version 2.38.0 (20140413.2041)
 -->
<!-- Title: %3 Pages: 1 -->
<svg width="947pt" height="526pt"
 viewBox="0.00 0.00 947.00 526.00" xmlns="http://www.w3.org/2000/svg" xmlns:xlink="http://www.w3.org/1999/xlink">
<g id="graph0" class="graph" transform="scale(1 1) rotate(0) translate(4 522)">
<title>%3</title>
<polygon fill="black" stroke="none" points="-4,4 -4,-522 943,-522 943,4 -4,4"/>
<!-- 2479806044232 -->
<g id="node1" class="node"><title>2479806044232</title>
<polygon fill="white" stroke="blue" points="483,-518 429,-518 429,-482 483,-482 483,-518"/>
<text text-anchor="middle" x="456" y="-496.3" font-family="Times New Roman,serif" font-size="14.00">0</text>
</g>
<!-- 2479806043912 -->
<g id="node3" class="node"><title>2479806043912</title>
<polygon fill="#f9fc12" stroke="blue" points="18.5,-409.5 18.5,-445.5 93.5,-445.5 93.5,-409.5 18.5,-409.5"/>
<text text-anchor="middle" x="35.5" y="-423.8" font-family="Times New Roman,serif" font-size="14.00">&#39; \t&#39;</text>
<polyline fill="none" stroke="blue" points="52.5,-409.5 52.5,-445.5 "/>
<text text-anchor="middle" x="73" y="-423.8" font-family="Times New Roman,serif" font-size="14.00">INC</text>
</g>
<!-- 2479806044232&#45;&gt;2479806043912 -->
<g id="edge2" class="edge"><title>2479806044232&#45;&gt;2479806043912</title>
<path fill="none" stroke="white" d="M428.821,-510C338.792,-510 56,-510 56,-510 56,-510 56,-455.809 56,-455.809"/>
<polygon fill="white" stroke="white" points="56,-445.809 60.5001,-455.809 56,-450.809 56.0001,-455.809 56.0001,-455.809 56.0001,-455.809 56,-450.809 51.5001,-455.809 56,-445.809 56,-445.809"/>
</g>
<!-- 2479806043592 -->
<g id="node5" class="node"><title>2479806043592</title>
<polygon fill="#f9fc12" stroke="blue" points="112,-409.5 112,-445.5 182,-445.5 182,-409.5 112,-409.5"/>
<text text-anchor="middle" x="126.5" y="-423.8" font-family="Times New Roman,serif" font-size="14.00">&#39;*&#39;</text>
<polyline fill="none" stroke="blue" points="141,-409.5 141,-445.5 "/>
<text text-anchor="middle" x="161.5" y="-423.8" font-family="Times New Roman,serif" font-size="14.00">INC</text>
</g>
<!-- 2479806044232&#45;&gt;2479806043592 -->
<g id="edge4" class="edge"><title>2479806044232&#45;&gt;2479806043592</title>
<path fill="none" stroke="white" d="M428.849,-503C353.447,-503 147,-503 147,-503 147,-503 147,-455.776 147,-455.776"/>
<polygon fill="white" stroke="white" points="147,-445.776 151.5,-455.776 147,-450.776 147,-455.776 147,-455.776 147,-455.776 147,-450.776 142.5,-455.776 147,-445.776 147,-445.776"/>
</g>
<!-- 2479806043080 -->
<g id="node7" class="node"><title>2479806043080</title>
<polygon fill="#f9fc12" stroke="blue" points="200,-409.5 200,-445.5 272,-445.5 272,-409.5 200,-409.5"/>
<text text-anchor="middle" x="215.5" y="-423.8" font-family="Times New Roman,serif" font-size="14.00">&#39;+&#39;</text>
<polyline fill="none" stroke="blue" points="231,-409.5 231,-445.5 "/>
<text text-anchor="middle" x="251.5" y="-423.8" font-family="Times New Roman,serif" font-size="14.00">INC</text>
</g>
<!-- 2479806044232&#45;&gt;2479806043080 -->
<g id="edge6" class="edge"><title>2479806044232&#45;&gt;2479806043080</title>
<path fill="none" stroke="white" d="M428.582,-496C369.607,-496 236,-496 236,-496 236,-496 236,-455.857 236,-455.857"/>
<polygon fill="white" stroke="white" points="236,-445.857 240.5,-455.857 236,-450.857 236,-455.857 236,-455.857 236,-455.857 236,-450.857 231.5,-455.857 236,-445.857 236,-445.857"/>
</g>
<!-- 2479806042696 -->
<g id="node9" class="node"><title>2479806042696</title>
<polygon fill="#f9fc12" stroke="blue" points="290,-409.5 290,-445.5 358,-445.5 358,-409.5 290,-409.5"/>
<text text-anchor="middle" x="303.5" y="-423.8" font-family="Times New Roman,serif" font-size="14.00">&#39;&#45;&#39;</text>
<polyline fill="none" stroke="blue" points="317,-409.5 317,-445.5 "/>
<text text-anchor="middle" x="337.5" y="-423.8" font-family="Times New Roman,serif" font-size="14.00">INC</text>
</g>
<!-- 2479806044232&#45;&gt;2479806042696 -->
<g id="edge8" class="edge"><title>2479806044232&#45;&gt;2479806042696</title>
<path fill="none" stroke="white" d="M428.969,-489C390.351,-489 324,-489 324,-489 324,-489 324,-455.619 324,-455.619"/>
<polygon fill="white" stroke="white" points="324,-445.619 328.5,-455.619 324,-450.619 324,-455.619 324,-455.619 324,-455.619 324,-450.619 319.5,-455.619 324,-445.619 324,-445.619"/>
</g>
<!-- 2479806042312 -->
<g id="node11" class="node"><title>2479806042312</title>
<polygon fill="#f9fc12" stroke="blue" points="376.5,-409.5 376.5,-445.5 443.5,-445.5 443.5,-409.5 376.5,-409.5"/>
<text text-anchor="middle" x="389.5" y="-423.8" font-family="Times New Roman,serif" font-size="14.00">&#39;.&#39;</text>
<polyline fill="none" stroke="blue" points="402.5,-409.5 402.5,-445.5 "/>
<text text-anchor="middle" x="423" y="-423.8" font-family="Times New Roman,serif" font-size="14.00">INC</text>
</g>
<!-- 2479806044232&#45;&gt;2479806042312 -->
<g id="edge10" class="edge"><title>2479806044232&#45;&gt;2479806042312</title>
<path fill="none" stroke="white" d="M436.25,-481.705C436.25,-481.705 436.25,-455.538 436.25,-455.538"/>
<polygon fill="white" stroke="white" points="436.25,-445.538 440.75,-455.538 436.25,-450.538 436.25,-455.538 436.25,-455.538 436.25,-455.538 436.25,-450.538 431.75,-455.538 436.25,-445.538 436.25,-445.538"/>
</g>
<!-- 2479805880136 -->
<g id="node13" class="node"><title>2479805880136</title>
<polygon fill="#f9fc12" stroke="blue" points="562.5,-409.5 562.5,-445.5 629.5,-445.5 629.5,-409.5 562.5,-409.5"/>
<text text-anchor="middle" x="575.5" y="-423.8" font-family="Times New Roman,serif" font-size="14.00">&#39;/&#39;</text>
<polyline fill="none" stroke="blue" points="588.5,-409.5 588.5,-445.5 "/>
<text text-anchor="middle" x="609" y="-423.8" font-family="Times New Roman,serif" font-size="14.00">INC</text>
</g>
<!-- 2479806044232&#45;&gt;2479805880136 -->
<g id="edge12" class="edge"><title>2479806044232&#45;&gt;2479805880136</title>
<path fill="none" stroke="white" d="M483.326,-489C524.068,-489 596,-489 596,-489 596,-489 596,-455.619 596,-455.619"/>
<polygon fill="white" stroke="white" points="596,-445.619 600.5,-455.619 596,-450.619 596,-455.619 596,-455.619 596,-455.619 596,-450.619 591.5,-455.619 596,-445.619 596,-445.619"/>
</g>
<!-- 2479805879944 -->
<g id="node15" class="node"><title>2479805879944</title>
<polygon fill="#f9fc12" stroke="blue" points="462,-409.5 462,-445.5 544,-445.5 544,-409.5 462,-409.5"/>
<text text-anchor="middle" x="482.5" y="-423.8" font-family="Times New Roman,serif" font-size="14.00">&#39;0&#45;9&#39;</text>
<polyline fill="none" stroke="blue" points="503,-409.5 503,-445.5 "/>
<text text-anchor="middle" x="523.5" y="-423.8" font-family="Times New Roman,serif" font-size="14.00">INC</text>
</g>
<!-- 2479806044232&#45;&gt;2479805879944 -->
<g id="edge14" class="edge"><title>2479806044232&#45;&gt;2479805879944</title>
<path fill="none" stroke="white" d="M472.5,-481.705C472.5,-481.705 472.5,-455.538 472.5,-455.538"/>
<polygon fill="white" stroke="white" points="472.5,-445.538 477,-455.538 472.5,-450.538 472.5,-455.538 472.5,-455.538 472.5,-455.538 472.5,-450.538 468,-455.538 472.5,-445.538 472.5,-445.538"/>
</g>
<!-- 2479806049992 -->
<g id="node17" class="node"><title>2479806049992</title>
<polygon fill="#f9fc12" stroke="blue" points="648,-409.5 648,-445.5 720,-445.5 720,-409.5 648,-409.5"/>
<text text-anchor="middle" x="663.5" y="-423.8" font-family="Times New Roman,serif" font-size="14.00">&#39;=&#39;</text>
<polyline fill="none" stroke="blue" points="679,-409.5 679,-445.5 "/>
<text text-anchor="middle" x="699.5" y="-423.8" font-family="Times New Roman,serif" font-size="14.00">INC</text>
</g>
<!-- 2479806044232&#45;&gt;2479806049992 -->
<g id="edge16" class="edge"><title>2479806044232&#45;&gt;2479806049992</title>
<path fill="none" stroke="white" d="M483.05,-496C543.445,-496 684,-496 684,-496 684,-496 684,-455.857 684,-455.857"/>
<polygon fill="white" stroke="white" points="684,-445.857 688.5,-455.857 684,-450.857 684,-455.857 684,-455.857 684,-455.857 684,-450.857 679.5,-455.857 684,-445.857 684,-445.857"/>
</g>
<!-- 2479806049864 -->
<g id="node19" class="node"><title>2479806049864</title>
<polygon fill="#f9fc12" stroke="blue" points="738,-409.5 738,-445.5 848,-445.5 848,-409.5 738,-409.5"/>
<text text-anchor="middle" x="772.5" y="-423.8" font-family="Times New Roman,serif" font-size="14.00">&#39;A&#45;Z_a&#45;z&#39;</text>
<polyline fill="none" stroke="blue" points="807,-409.5 807,-445.5 "/>
<text text-anchor="middle" x="827.5" y="-423.8" font-family="Times New Roman,serif" font-size="14.00">INC</text>
</g>
<!-- 2479806044232&#45;&gt;2479806049864 -->
<g id="edge18" class="edge"><title>2479806044232&#45;&gt;2479806049864</title>
<path fill="none" stroke="white" d="M483.008,-503C562.977,-503 793,-503 793,-503 793,-503 793,-455.776 793,-455.776"/>
<polygon fill="white" stroke="white" points="793,-445.776 797.5,-455.776 793,-450.776 793,-455.776 793,-455.776 793,-455.776 793,-450.776 788.5,-455.776 793,-445.776 793,-445.776"/>
</g>
<!-- 2479806049096 -->
<g id="node21" class="node"><title>2479806049096</title>
<polygon fill="#abad0e" stroke="blue" points="866,-409.5 866,-445.5 930,-445.5 930,-409.5 866,-409.5"/>
<text text-anchor="middle" x="876" y="-423.8" font-family="Times New Roman,serif" font-size="14.00"> </text>
<polyline fill="none" stroke="blue" points="886,-409.5 886,-445.5 "/>
<text text-anchor="middle" x="908" y="-423.8" font-family="Times New Roman,serif" font-size="14.00">EXC</text>
</g>
<!-- 2479806044232&#45;&gt;2479806049096 -->
<g id="edge20" class="edge"><title>2479806044232&#45;&gt;2479806049096</title>
<path fill="none" stroke="white" d="M483.316,-510C579.681,-510 898,-510 898,-510 898,-510 898,-455.809 898,-455.809"/>
<polygon fill="white" stroke="white" points="898,-445.809 902.5,-455.809 898,-450.809 898,-455.809 898,-455.809 898,-455.809 898,-450.809 893.5,-455.809 898,-445.809 898,-445.809"/>
</g>
<!-- 2479806044168 -->
<g id="node2" class="node"><title>2479806044168</title>
<polygon fill="white" stroke="blue" points="83,-349.5 29,-349.5 29,-313.5 83,-313.5 83,-349.5"/>
<text text-anchor="middle" x="56" y="-327.8" font-family="Times New Roman,serif" font-size="14.00">4</text>
</g>
<!-- 2479806044168&#45;&gt;2479806043912 -->
<g id="edge25" class="edge"><title>2479806044168&#45;&gt;2479806043912</title>
<path fill="none" stroke="white" d="M47,-349.557C47,-349.557 47,-399.198 47,-399.198"/>
<polygon fill="white" stroke="white" points="47,-409.198 42.5001,-399.198 47,-404.198 47.0001,-399.198 47.0001,-399.198 47.0001,-399.198 47,-404.198 51.5001,-399.198 47,-409.198 47,-409.198"/>
</g>
<!-- 2479806048584 -->
<g id="node26" class="node"><title>2479806048584</title>
<polygon fill="#abad0e" stroke="blue" points="24,-217.5 24,-253.5 88,-253.5 88,-217.5 24,-217.5"/>
<text text-anchor="middle" x="34" y="-231.8" font-family="Times New Roman,serif" font-size="14.00"> </text>
<polyline fill="none" stroke="blue" points="44,-217.5 44,-253.5 "/>
<text text-anchor="middle" x="66" y="-231.8" font-family="Times New Roman,serif" font-size="14.00">EXC</text>
</g>
<!-- 2479806044168&#45;&gt;2479806048584 -->
<g id="edge27" class="edge"><title>2479806044168&#45;&gt;2479806048584</title>
<path fill="none" stroke="white" d="M56,-313.443C56,-313.443 56,-263.802 56,-263.802"/>
<polygon fill="white" stroke="white" points="56,-253.802 60.5001,-263.802 56,-258.802 56.0001,-263.802 56.0001,-263.802 56.0001,-263.802 56,-258.802 51.5001,-263.802 56,-253.802 56,-253.802"/>
</g>
<!-- 2479806043912&#45;&gt;2479806044168 -->
<g id="edge1" class="edge"><title>2479806043912&#45;&gt;2479806044168</title>
<path fill="none" stroke="white" d="M65,-409.443C65,-409.443 65,-359.802 65,-359.802"/>
<polygon fill="white" stroke="white" points="65,-349.802 69.5001,-359.802 65,-354.802 65.0001,-359.802 65.0001,-359.802 65.0001,-359.802 65,-354.802 60.5001,-359.802 65,-349.802 65,-349.802"/>
</g>
<!-- 2479806043720 -->
<g id="node4" class="node"><title>2479806043720</title>
<polygon fill="lime" stroke="blue" points="176.5,-349.5 117.5,-349.5 117.5,-313.5 176.5,-313.5 176.5,-349.5"/>
<text text-anchor="middle" x="147" y="-327.8" font-family="Times New Roman,serif" font-size="14.00">&#39;STAR&#39;</text>
</g>
<!-- 2479806043592&#45;&gt;2479806043720 -->
<g id="edge3" class="edge"><title>2479806043592&#45;&gt;2479806043720</title>
<path fill="none" stroke="white" d="M147,-409.443C147,-409.443 147,-359.802 147,-359.802"/>
<polygon fill="white" stroke="white" points="147,-349.802 151.5,-359.802 147,-354.802 147,-359.802 147,-359.802 147,-359.802 147,-354.802 142.5,-359.802 147,-349.802 147,-349.802"/>
</g>
<!-- 2479806043208 -->
<g id="node6" class="node"><title>2479806043208</title>
<polygon fill="lime" stroke="blue" points="264.5,-349.5 207.5,-349.5 207.5,-313.5 264.5,-313.5 264.5,-349.5"/>
<text text-anchor="middle" x="236" y="-327.8" font-family="Times New Roman,serif" font-size="14.00">&#39;PLUS&#39;</text>
</g>
<!-- 2479806043080&#45;&gt;2479806043208 -->
<g id="edge5" class="edge"><title>2479806043080&#45;&gt;2479806043208</title>
<path fill="none" stroke="white" d="M236,-409.443C236,-409.443 236,-359.802 236,-359.802"/>
<polygon fill="white" stroke="white" points="236,-349.802 240.5,-359.802 236,-354.802 236,-359.802 236,-359.802 236,-359.802 236,-354.802 231.5,-359.802 236,-349.802 236,-349.802"/>
</g>
<!-- 2479806042824 -->
<g id="node8" class="node"><title>2479806042824</title>
<polygon fill="lime" stroke="blue" points="354,-349.5 294,-349.5 294,-313.5 354,-313.5 354,-349.5"/>
<text text-anchor="middle" x="324" y="-327.8" font-family="Times New Roman,serif" font-size="14.00">&#39;DASH&#39;</text>
</g>
<!-- 2479806042696&#45;&gt;2479806042824 -->
<g id="edge7" class="edge"><title>2479806042696&#45;&gt;2479806042824</title>
<path fill="none" stroke="white" d="M324,-409.443C324,-409.443 324,-359.802 324,-359.802"/>
<polygon fill="white" stroke="white" points="324,-349.802 328.5,-359.802 324,-354.802 324,-359.802 324,-359.802 324,-359.802 324,-354.802 319.5,-359.802 324,-349.802 324,-349.802"/>
</g>
<!-- 2479806042504 -->
<g id="node10" class="node"><title>2479806042504</title>
<polygon fill="white" stroke="blue" points="437,-349.5 383,-349.5 383,-313.5 437,-313.5 437,-349.5"/>
<text text-anchor="middle" x="410" y="-327.8" font-family="Times New Roman,serif" font-size="14.00">1</text>
</g>
<!-- 2479806046856 -->
<g id="node31" class="node"><title>2479806046856</title>
<polygon fill="#f9fc12" stroke="blue" points="369,-217.5 369,-253.5 451,-253.5 451,-217.5 369,-217.5"/>
<text text-anchor="middle" x="389.5" y="-231.8" font-family="Times New Roman,serif" font-size="14.00">&#39;0&#45;9&#39;</text>
<polyline fill="none" stroke="blue" points="410,-217.5 410,-253.5 "/>
<text text-anchor="middle" x="430.5" y="-231.8" font-family="Times New Roman,serif" font-size="14.00">INC</text>
</g>
<!-- 2479806042504&#45;&gt;2479806046856 -->
<g id="edge34" class="edge"><title>2479806042504&#45;&gt;2479806046856</title>
<path fill="none" stroke="white" d="M410,-313.443C410,-313.443 410,-263.802 410,-263.802"/>
<polygon fill="white" stroke="white" points="410,-253.802 414.5,-263.802 410,-258.802 410,-263.802 410,-263.802 410,-263.802 410,-258.802 405.5,-263.802 410,-253.802 410,-253.802"/>
</g>
<!-- 2479806046600 -->
<g id="node33" class="node"><title>2479806046600</title>
<polygon fill="#abad0e" stroke="blue" points="287,-217.5 287,-253.5 351,-253.5 351,-217.5 287,-217.5"/>
<text text-anchor="middle" x="297" y="-231.8" font-family="Times New Roman,serif" font-size="14.00"> </text>
<polyline fill="none" stroke="blue" points="307,-217.5 307,-253.5 "/>
<text text-anchor="middle" x="329" y="-231.8" font-family="Times New Roman,serif" font-size="14.00">EXC</text>
</g>
<!-- 2479806042504&#45;&gt;2479806046600 -->
<g id="edge36" class="edge"><title>2479806042504&#45;&gt;2479806046600</title>
<path fill="none" stroke="white" d="M382.951,-331C372.721,-331 363.5,-331 363.5,-331 363.5,-331 363.5,-235 363.5,-235 363.5,-235 361.34,-235 361.34,-235"/>
<polygon fill="white" stroke="white" points="351.34,-235 361.34,-230.5 356.34,-235 361.34,-235 361.34,-235 361.34,-235 356.34,-235 361.34,-239.5 351.34,-235 351.34,-235"/>
</g>
<!-- 2479806042312&#45;&gt;2479806042504 -->
<g id="edge9" class="edge"><title>2479806042312&#45;&gt;2479806042504</title>
<path fill="none" stroke="white" d="M410,-409.443C410,-409.443 410,-359.802 410,-359.802"/>
<polygon fill="white" stroke="white" points="410,-349.802 414.5,-359.802 410,-354.802 410,-359.802 410,-359.802 410,-359.802 410,-354.802 405.5,-359.802 410,-349.802 410,-349.802"/>
</g>
<!-- 2479806042184 -->
<g id="node12" class="node"><title>2479806042184</title>
<polygon fill="lime" stroke="blue" points="629.5,-349.5 562.5,-349.5 562.5,-313.5 629.5,-313.5 629.5,-349.5"/>
<text text-anchor="middle" x="596" y="-327.8" font-family="Times New Roman,serif" font-size="14.00">&#39;SLASH&#39;</text>
</g>
<!-- 2479805880136&#45;&gt;2479806042184 -->
<g id="edge11" class="edge"><title>2479805880136&#45;&gt;2479806042184</title>
<path fill="none" stroke="white" d="M596,-409.443C596,-409.443 596,-359.802 596,-359.802"/>
<polygon fill="white" stroke="white" points="596,-349.802 600.5,-359.802 596,-354.802 596,-359.802 596,-359.802 596,-359.802 596,-354.802 591.5,-359.802 596,-349.802 596,-349.802"/>
</g>
<!-- 2479805880200 -->
<g id="node14" class="node"><title>2479805880200</title>
<polygon fill="white" stroke="blue" points="530,-349.5 476,-349.5 476,-313.5 530,-313.5 530,-349.5"/>
<text text-anchor="middle" x="503" y="-327.8" font-family="Times New Roman,serif" font-size="14.00">5</text>
</g>
<!-- 2479805880200&#45;&gt;2479805879944 -->
<g id="edge30" class="edge"><title>2479805880200&#45;&gt;2479805879944</title>
<path fill="none" stroke="white" d="M494,-349.557C494,-349.557 494,-399.198 494,-399.198"/>
<polygon fill="white" stroke="white" points="494,-409.198 489.5,-399.198 494,-404.198 494,-399.198 494,-399.198 494,-399.198 494,-404.198 498.5,-399.198 494,-409.198 494,-409.198"/>
</g>
<!-- 2479806048072 -->
<g id="node28" class="node"><title>2479806048072</title>
<polygon fill="#f9fc12" stroke="blue" points="469.5,-217.5 469.5,-253.5 536.5,-253.5 536.5,-217.5 469.5,-217.5"/>
<text text-anchor="middle" x="482.5" y="-231.8" font-family="Times New Roman,serif" font-size="14.00">&#39;.&#39;</text>
<polyline fill="none" stroke="blue" points="495.5,-217.5 495.5,-253.5 "/>
<text text-anchor="middle" x="516" y="-231.8" font-family="Times New Roman,serif" font-size="14.00">INC</text>
</g>
<!-- 2479805880200&#45;&gt;2479806048072 -->
<g id="edge29" class="edge"><title>2479805880200&#45;&gt;2479806048072</title>
<path fill="none" stroke="white" d="M503,-313.443C503,-313.443 503,-263.802 503,-263.802"/>
<polygon fill="white" stroke="white" points="503,-253.802 507.5,-263.802 503,-258.802 503,-263.802 503,-263.802 503,-263.802 503,-258.802 498.5,-263.802 503,-253.802 503,-253.802"/>
</g>
<!-- 2479806047496 -->
<g id="node30" class="node"><title>2479806047496</title>
<polygon fill="#abad0e" stroke="blue" points="555,-217.5 555,-253.5 619,-253.5 619,-217.5 555,-217.5"/>
<text text-anchor="middle" x="565" y="-231.8" font-family="Times New Roman,serif" font-size="14.00"> </text>
<polyline fill="none" stroke="blue" points="575,-217.5 575,-253.5 "/>
<text text-anchor="middle" x="597" y="-231.8" font-family="Times New Roman,serif" font-size="14.00">EXC</text>
</g>
<!-- 2479805880200&#45;&gt;2479806047496 -->
<g id="edge32" class="edge"><title>2479805880200&#45;&gt;2479806047496</title>
<path fill="none" stroke="white" d="M530.222,-331C544.374,-331 558.75,-331 558.75,-331 558.75,-331 558.75,-263.913 558.75,-263.913"/>
<polygon fill="white" stroke="white" points="558.75,-253.913 563.25,-263.913 558.75,-258.913 558.75,-263.913 558.75,-263.913 558.75,-263.913 558.75,-258.913 554.25,-263.913 558.75,-253.913 558.75,-253.913"/>
</g>
<!-- 2479805879944&#45;&gt;2479805880200 -->
<g id="edge13" class="edge"><title>2479805879944&#45;&gt;2479805880200</title>
<path fill="none" stroke="white" d="M512,-409.443C512,-409.443 512,-359.802 512,-359.802"/>
<polygon fill="white" stroke="white" points="512,-349.802 516.5,-359.802 512,-354.802 512,-359.802 512,-359.802 512,-359.802 512,-354.802 507.5,-359.802 512,-349.802 512,-349.802"/>
</g>
<!-- 2479806050248 -->
<g id="node16" class="node"><title>2479806050248</title>
<polygon fill="lime" stroke="blue" points="718.5,-349.5 649.5,-349.5 649.5,-313.5 718.5,-313.5 718.5,-349.5"/>
<text text-anchor="middle" x="684" y="-327.8" font-family="Times New Roman,serif" font-size="14.00">&#39;EQUAL&#39;</text>
</g>
<!-- 2479806049992&#45;&gt;2479806050248 -->
<g id="edge15" class="edge"><title>2479806049992&#45;&gt;2479806050248</title>
<path fill="none" stroke="white" d="M684,-409.443C684,-409.443 684,-359.802 684,-359.802"/>
<polygon fill="white" stroke="white" points="684,-349.802 688.5,-359.802 684,-354.802 684,-359.802 684,-359.802 684,-359.802 684,-354.802 679.5,-359.802 684,-349.802 684,-349.802"/>
</g>
<!-- 2479806049736 -->
<g id="node18" class="node"><title>2479806049736</title>
<polygon fill="white" stroke="blue" points="820,-349.5 766,-349.5 766,-313.5 820,-313.5 820,-349.5"/>
<text text-anchor="middle" x="793" y="-327.8" font-family="Times New Roman,serif" font-size="14.00">3</text>
</g>
<!-- 2479806048968 -->
<g id="node22" class="node"><title>2479806048968</title>
<polygon fill="#f9fc12" stroke="blue" points="729,-217.5 729,-253.5 857,-253.5 857,-217.5 729,-217.5"/>
<text text-anchor="middle" x="772.5" y="-231.8" font-family="Times New Roman,serif" font-size="14.00">&#39;0&#45;9A&#45;Z_a&#45;z&#39;</text>
<polyline fill="none" stroke="blue" points="816,-217.5 816,-253.5 "/>
<text text-anchor="middle" x="836.5" y="-231.8" font-family="Times New Roman,serif" font-size="14.00">INC</text>
</g>
<!-- 2479806049736&#45;&gt;2479806048968 -->
<g id="edge22" class="edge"><title>2479806049736&#45;&gt;2479806048968</title>
<path fill="none" stroke="white" d="M793,-313.443C793,-313.443 793,-263.802 793,-263.802"/>
<polygon fill="white" stroke="white" points="793,-253.802 797.5,-263.802 793,-258.802 793,-263.802 793,-263.802 793,-263.802 793,-258.802 788.5,-263.802 793,-253.802 793,-253.802"/>
</g>
<!-- 2479806049416 -->
<g id="node24" class="node"><title>2479806049416</title>
<polygon fill="#abad0e" stroke="blue" points="875,-217.5 875,-253.5 939,-253.5 939,-217.5 875,-217.5"/>
<text text-anchor="middle" x="885" y="-231.8" font-family="Times New Roman,serif" font-size="14.00"> </text>
<polyline fill="none" stroke="blue" points="895,-217.5 895,-253.5 "/>
<text text-anchor="middle" x="917" y="-231.8" font-family="Times New Roman,serif" font-size="14.00">EXC</text>
</g>
<!-- 2479806049736&#45;&gt;2479806049416 -->
<g id="edge24" class="edge"><title>2479806049736&#45;&gt;2479806049416</title>
<path fill="none" stroke="white" d="M806.5,-313.325C806.5,-295.827 806.5,-272 806.5,-272 806.5,-272 903.75,-272 903.75,-272 903.75,-272 903.75,-263.75 903.75,-263.75"/>
<polygon fill="white" stroke="white" points="903.75,-253.75 908.25,-263.75 903.75,-258.75 903.75,-263.75 903.75,-263.75 903.75,-263.75 903.75,-258.75 899.25,-263.75 903.75,-253.75 903.75,-253.75"/>
</g>
<!-- 2479806049864&#45;&gt;2479806049736 -->
<g id="edge17" class="edge"><title>2479806049864&#45;&gt;2479806049736</title>
<path fill="none" stroke="white" d="M793,-409.443C793,-409.443 793,-359.802 793,-359.802"/>
<polygon fill="white" stroke="white" points="793,-349.802 797.5,-359.802 793,-354.802 793,-359.802 793,-359.802 793,-359.802 793,-354.802 788.5,-359.802 793,-349.802 793,-349.802"/>
</g>
<!-- 2479806049032 -->
<g id="node20" class="node"><title>2479806049032</title>
<polygon fill="red" stroke="blue" points="932.5,-373 863.5,-373 863.5,-290 932.5,-290 932.5,-373"/>
<text text-anchor="middle" x="898" y="-357.8" font-family="Times New Roman,serif" font-size="14.00">&#39;DASH&#39;</text>
<text text-anchor="middle" x="898" y="-342.8" font-family="Times New Roman,serif" font-size="14.00">&#39;EQUAL&#39;</text>
<text text-anchor="middle" x="898" y="-327.8" font-family="Times New Roman,serif" font-size="14.00">&#39;PLUS&#39;</text>
<text text-anchor="middle" x="898" y="-312.8" font-family="Times New Roman,serif" font-size="14.00">&#39;SLASH&#39;</text>
<text text-anchor="middle" x="898" y="-297.8" font-family="Times New Roman,serif" font-size="14.00">&#39;STAR&#39;</text>
</g>
<!-- 2479806049096&#45;&gt;2479806049032 -->
<g id="edge19" class="edge"><title>2479806049096&#45;&gt;2479806049032</title>
<path fill="none" stroke="white" d="M898,-409.443C898,-409.443 898,-383.367 898,-383.367"/>
<polygon fill="white" stroke="white" points="898,-373.367 902.5,-383.367 898,-378.367 898,-383.367 898,-383.367 898,-383.367 898,-378.367 893.5,-383.367 898,-373.367 898,-373.367"/>
</g>
<!-- 2479806048968&#45;&gt;2479806049736 -->
<g id="edge21" class="edge"><title>2479806048968&#45;&gt;2479806049736</title>
<path fill="none" stroke="white" d="M779.5,-253.557C779.5,-253.557 779.5,-303.198 779.5,-303.198"/>
<polygon fill="white" stroke="white" points="779.5,-313.198 775,-303.198 779.5,-308.198 779.5,-303.198 779.5,-303.198 779.5,-303.198 779.5,-308.198 784,-303.198 779.5,-313.198 779.5,-313.198"/>
</g>
<!-- 2479806049352 -->
<g id="node23" class="node"><title>2479806049352</title>
<polygon fill="lime" stroke="blue" points="934,-181 880,-181 880,-145 934,-145 934,-181"/>
<text text-anchor="middle" x="907" y="-159.3" font-family="Times New Roman,serif" font-size="14.00">&#39;VAR&#39;</text>
</g>
<!-- 2479806049416&#45;&gt;2479806049352 -->
<g id="edge23" class="edge"><title>2479806049416&#45;&gt;2479806049352</title>
<path fill="none" stroke="white" d="M907,-217.205C907,-217.205 907,-191.038 907,-191.038"/>
<polygon fill="white" stroke="white" points="907,-181.038 911.5,-191.038 907,-186.038 907,-191.038 907,-191.038 907,-191.038 907,-186.038 902.5,-191.038 907,-181.038 907,-181.038"/>
</g>
<!-- 2479806048520 -->
<g id="node25" class="node"><title>2479806048520</title>
<polygon fill="lime" stroke="blue" points="112,-181 7.10543e-015,-181 7.10543e-015,-145 112,-145 112,-181"/>
<text text-anchor="middle" x="56" y="-159.3" font-family="Times New Roman,serif" font-size="14.00">&#39;WHITESPACE&#39;</text>
</g>
<!-- 2479806048584&#45;&gt;2479806048520 -->
<g id="edge26" class="edge"><title>2479806048584&#45;&gt;2479806048520</title>
<path fill="none" stroke="white" d="M56,-217.205C56,-217.205 56,-191.038 56,-191.038"/>
<polygon fill="white" stroke="white" points="56,-181.038 60.5001,-191.038 56,-186.038 56.0001,-191.038 56.0001,-191.038 56.0001,-191.038 56,-186.038 51.5001,-191.038 56,-181.038 56,-181.038"/>
</g>
<!-- 2479806048200 -->
<g id="node27" class="node"><title>2479806048200</title>
<polygon fill="white" stroke="blue" points="437,-181 383,-181 383,-145 437,-145 437,-181"/>
<text text-anchor="middle" x="410" y="-159.3" font-family="Times New Roman,serif" font-size="14.00">2</text>
</g>
<!-- 2479806048200&#45;&gt;2479806046856 -->
<g id="edge37" class="edge"><title>2479806048200&#45;&gt;2479806046856</title>
<path fill="none" stroke="white" d="M419,-181.295C419,-181.295 419,-207.462 419,-207.462"/>
<polygon fill="white" stroke="white" points="419,-217.462 414.5,-207.462 419,-212.462 419,-207.462 419,-207.462 419,-207.462 419,-212.462 423.5,-207.462 419,-217.462 419,-217.462"/>
</g>
<!-- 2479806087304 -->
<g id="node35" class="node"><title>2479806087304</title>
<polygon fill="#abad0e" stroke="blue" points="378,-72.5 378,-108.5 442,-108.5 442,-72.5 378,-72.5"/>
<text text-anchor="middle" x="388" y="-86.8" font-family="Times New Roman,serif" font-size="14.00"> </text>
<polyline fill="none" stroke="blue" points="398,-72.5 398,-108.5 "/>
<text text-anchor="middle" x="420" y="-86.8" font-family="Times New Roman,serif" font-size="14.00">EXC</text>
</g>
<!-- 2479806048200&#45;&gt;2479806087304 -->
<g id="edge39" class="edge"><title>2479806048200&#45;&gt;2479806087304</title>
<path fill="none" stroke="white" d="M410,-144.705C410,-144.705 410,-118.538 410,-118.538"/>
<polygon fill="white" stroke="white" points="410,-108.538 414.5,-118.538 410,-113.538 410,-118.538 410,-118.538 410,-118.538 410,-113.538 405.5,-118.538 410,-108.538 410,-108.538"/>
</g>
<!-- 2479806048072&#45;&gt;2479806048200 -->
<g id="edge28" class="edge"><title>2479806048072&#45;&gt;2479806048200</title>
<path fill="none" stroke="white" d="M503,-217.205C503,-195.728 503,-163 503,-163 503,-163 447.4,-163 447.4,-163"/>
<polygon fill="white" stroke="white" points="437.4,-163 447.4,-158.5 442.4,-163 447.4,-163 447.4,-163 447.4,-163 442.4,-163 447.4,-167.5 437.4,-163 437.4,-163"/>
</g>
<!-- 2479806046920 -->
<g id="node29" class="node"><title>2479806046920</title>
<polygon fill="lime" stroke="blue" points="614,-181 560,-181 560,-145 614,-145 614,-181"/>
<text text-anchor="middle" x="587" y="-159.3" font-family="Times New Roman,serif" font-size="14.00">&#39;INT&#39;</text>
</g>
<!-- 2479806047496&#45;&gt;2479806046920 -->
<g id="edge31" class="edge"><title>2479806047496&#45;&gt;2479806046920</title>
<path fill="none" stroke="white" d="M587,-217.205C587,-217.205 587,-191.038 587,-191.038"/>
<polygon fill="white" stroke="white" points="587,-181.038 591.5,-191.038 587,-186.038 587,-191.038 587,-191.038 587,-191.038 587,-186.038 582.5,-191.038 587,-181.038 587,-181.038"/>
</g>
<!-- 2479806046856&#45;&gt;2479806048200 -->
<g id="edge33" class="edge"><title>2479806046856&#45;&gt;2479806048200</title>
<path fill="none" stroke="white" d="M401,-217.205C401,-217.205 401,-191.038 401,-191.038"/>
<polygon fill="white" stroke="white" points="401,-181.038 405.5,-191.038 401,-186.038 401,-191.038 401,-191.038 401,-191.038 401,-186.038 396.5,-191.038 401,-181.038 401,-181.038"/>
</g>
<!-- 2479806046408 -->
<g id="node32" class="node"><title>2479806046408</title>
<polygon fill="red" stroke="blue" points="353,-181 285,-181 285,-145 353,-145 353,-181"/>
<text text-anchor="middle" x="319" y="-159.3" font-family="Times New Roman,serif" font-size="14.00">&#39;FLOAT&#39;</text>
</g>
<!-- 2479806046600&#45;&gt;2479806046408 -->
<g id="edge35" class="edge"><title>2479806046600&#45;&gt;2479806046408</title>
<path fill="none" stroke="white" d="M319,-217.205C319,-217.205 319,-191.038 319,-191.038"/>
<polygon fill="white" stroke="white" points="319,-181.038 323.5,-191.038 319,-186.038 319,-191.038 319,-191.038 319,-191.038 319,-186.038 314.5,-191.038 319,-181.038 319,-181.038"/>
</g>
<!-- 2479806047752 -->
<g id="node34" class="node"><title>2479806047752</title>
<polygon fill="lime" stroke="blue" points="444,-36 376,-36 376,-0 444,-0 444,-36"/>
<text text-anchor="middle" x="410" y="-14.3" font-family="Times New Roman,serif" font-size="14.00">&#39;FLOAT&#39;</text>
</g>
<!-- 2479806087304&#45;&gt;2479806047752 -->
<g id="edge38" class="edge"><title>2479806087304&#45;&gt;2479806047752</title>
<path fill="none" stroke="white" d="M410,-72.2052C410,-72.2052 410,-46.0378 410,-46.0378"/>
<polygon fill="white" stroke="white" points="410,-36.0378 414.5,-46.0378 410,-41.0378 410,-46.0378 410,-46.0378 410,-46.0378 410,-41.0378 405.5,-46.0379 410,-36.0378 410,-36.0378"/>
</g>
</g>
</svg>
